<svg xmlns="http://www.w3.org/2000/svg" width="600" height="600" viewBox="0 0 600 600">
  <defs>
    <linearGradient id="sky" x1="0" x2="0" y1="0" y2="1">
      <stop offset="0%" stop-color="#8bdcff"/>
      <stop offset="55%" stop-color="#eaf9ff"/>
      <stop offset="100%" stop-color="#fff1cd"/>
    </linearGradient>
    <linearGradient id="sea" x1="0" x2="1" y1="0" y2="1">
      <stop offset="0%" stop-color="#0a6c88"/>
      <stop offset="100%" stop-color="#18b7dc"/>
    </linearGradient>
    <clipPath id="clip"><circle cx="300" cy="300" r="282"/></clipPath>
  </defs>
  <circle cx="300" cy="300" r="295" fill="#fff8ed"/>
  <g clip-path="url(#clip)">
    <rect width="600" height="600" fill="url(#sky)"/>
    <circle cx="455" cy="120" r="58" fill="#ffd27d"/>
    <path d="M0 355 C95 320 165 385 250 348 C355 302 430 382 600 336 L600 600 L0 600Z" fill="url(#sea)"/>
    <path d="M0 430 C110 395 185 460 280 420 C390 375 455 455 600 410 L600 600 L0 600Z" fill="#08718f" opacity=".74"/>
    <path d="M70 395 C125 375 165 416 225 392" fill="none" stroke="#fff" stroke-width="13" stroke-linecap="round" opacity=".78"/>
    <path d="M325 390 C390 365 445 420 520 386" fill="none" stroke="#fff" stroke-width="13" stroke-linecap="round" opacity=".78"/>
    <path d="M0 520 C135 485 250 548 395 506 C490 480 548 492 600 475 L600 600 L0 600Z" fill="#f4e3c4"/>
  </g>
  <circle cx="300" cy="300" r="282" fill="none" stroke="#fff" stroke-width="18"/>
</svg>